<svg xmlns="http://www.w3.org/2000/svg" class="iconAbove" viewBox="0 0 300 300"><defs><linearGradient id="a" x1="0%" x2="100%" y1="0%" y2="0%" gradientTransform="rotate(25)"><stop offset="0%" stop-color="#968ABF"/><stop offset="100%" stop-color="#E4A8AA"/></linearGradient></defs><path fill="url(#a)" d="M0 0h300v300H0z" class="logo-background-square"/><g fill="#fff" style="stroke-width:.556909"><path d="M512 922.4c-33.3 0-60.4-27.1-60.4-60.3s27.1-60.4 60.4-60.4 60.3 27.1 60.3 60.4-27 60.3-60.3 60.3m0-100.7c-22.2 0-40.4 18.1-40.4 40.4s18.1 40.3 40.4 40.3 40.3-18.1 40.3-40.3-18.1-40.4-40.3-40.4" style="stroke-width:.556909" transform="translate(87.623 87.622)scale(.12183)"/><path d="M406.9 859.5c-5 0-9.8-1.3-14.1-3.7h-.4l-2.7-2c-12.9-9.5-15.6-27.7-6.1-40.5l60.7-82.4 16.1 11.9-60.7 82.4c-2.9 3.9-2.1 9.4 1.7 12.4l.2.2c1.9 1.4 4.3 2 6.7 1.6s4.4-1.6 5.9-3.5l23.5-31.8c8.6-11.6 19.9-21.2 32.7-27.6 12.9-6.5 27.3-9.9 41.7-9.9 29.2 0 57 14 74.4 37.6L610 836c1.7 2.3 4.3 3.6 7.2 3.6 1.9 0 3.8-.6 5.3-1.7 1.9-1.4 3.2-3.5 3.5-5.9.4-2.4-.2-4.7-1.6-6.7l-60.7-82.4 16.1-11.9 60.7 82.4c4.6 6.2 6.5 13.9 5.3 21.5s-5.2 14.4-11.5 19c-5 3.7-10.9 5.6-17.2 5.6-9.2 0-17.9-4.4-23.3-11.8l-23.5-31.8c-13.6-18.4-35.4-29.4-58.3-29.4-11.3 0-22.6 2.7-32.6 7.8-10.1 5.1-18.9 12.6-25.6 21.7l-23.5 31.8c-4.6 6.2-11.3 10.3-19 11.4-1.5.2-3 .3-4.4.3" style="stroke-width:.556909" transform="translate(87.623 87.622)scale(.12183)"/><path d="M563.5 742.8c-.8-1.1-1.6-2.2-2.2-3.3l17-10.6c.4.6.9 1.3 1.4 2zm-103.1.1-16-12c.5-.6.9-1.3 1.4-2l16.9 10.6c-.7 1.2-1.5 2.4-2.3 3.4m-251.5 4.5c-33.3 0-60.4-27.1-60.4-60.4s27.1-60.3 60.4-60.3 60.4 27.1 60.4 60.3-27.2 60.4-60.4 60.4m0-100.7c-22.2 0-40.4 18.1-40.4 40.3s18.1 40.4 40.4 40.4 40.4-18.1 40.4-40.4-18.2-40.3-40.4-40.3" style="stroke-width:.556909" transform="translate(87.623 87.622)scale(.12183)"/><path d="M288.6 791.2c-3.9 0-7.8-.8-11.6-2.4-10.6-4.6-17.4-15-17.4-26.5 0-4 .8-7.9 2.4-11.6l15.8-36.2c9.2-21 7.8-45.4-3.6-65.2-5.6-9.8-13.6-18.2-23.1-24.4-9.4-6.2-20.4-10.1-31.6-11.4l-39.3-4.4c-15.7-1.8-27-15.8-25.6-31.4v-.1l.1-.6c.9-7.7 4.7-14.6 10.7-19.4s13.6-7 21.3-6.1l101.7 11.4c.8.1 1.7.2 2.6.2l-.9 20c-1.3-.1-2.7-.2-3.9-.3l-101.7-11.4c-2.4-.3-4.7.4-6.6 1.9-1.8 1.5-3 3.6-3.3 5.9v.1c-.5 4.9 3 9.4 7.9 9.9l39.3 4.4c14.3 1.6 28.2 6.6 40.3 14.5a92.1 92.1 0 0 1 29.4 31.1c14.6 25.3 16.4 56.4 4.7 83.2l-15.8 36.2c-.5 1.2-.8 2.4-.8 3.6 0 3.6 2.1 6.8 5.4 8.2 4.5 2 9.8-.1 11.8-4.6l41-93.8 18.3 8-41 93.8c-4.6 10.9-15.3 17.4-26.5 17.4" style="stroke-width:.556909" transform="translate(87.623 87.622)scale(.12183)"/><path d="m356.2 680.1-18.3-8.1c.6-1.3 1.1-2.5 1.7-3.6l17.7 9.4c-.4.7-.7 1.4-1.1 2.3M208.9 397.3c-33.3 0-60.4-27.1-60.4-60.4s27.1-60.4 60.4-60.4 60.4 27.1 60.4 60.4-27.2 60.4-60.4 60.4m0-100.7c-22.2 0-40.4 18.1-40.4 40.4s18.1 40.4 40.4 40.4 40.4-18.1 40.4-40.4-18.2-40.4-40.4-40.4m130.7 59c-.6-1.2-1.2-2.4-1.7-3.6l18.3-8c.3.8.7 1.6 1.1 2.3z" style="stroke-width:.556909" transform="translate(87.623 87.622)scale(.12183)"/><path d="M183.6 472.7c-14.5 0-27.1-11-28.8-25.7-.1-1.1-.2-2.2-.2-3.3 0-14.8 11.1-27.1 25.7-28.8l39.3-4.4c22.8-2.6 43.2-15.9 54.6-35.8 6.3-11 9.7-23.5 9.7-36.2 0-10-2-19.8-6.1-29L262 273.3c-6.4-14.6.3-31.7 14.9-38.1l1.9-.8h.2c14.1-4.9 29.9 1.8 36 15.8l41 93.8-18.3 8-41-93.8c-2-4.5-7.3-6.6-11.8-4.6l-.2.1c-4.4 2.1-6.3 7.3-4.4 11.7l15.8 36.2c5.1 11.7 7.7 24.2 7.7 37 0 16.2-4.3 32.2-12.4 46.2-14.6 25.3-40.7 42.4-69.7 45.6l-39.3 4.4c-4.5.5-8 4.3-8 8.9 0 .3 0 .7.1 1 .5 4.9 5 8.4 9.9 7.9l101.7-11.4 2.2 19.9-101.7 11.4c-.9.1-1.9.2-3 .2" style="stroke-width:.556909" transform="translate(87.623 87.622)scale(.12183)"/><path d="m288.6 461.1-2.2-19.9c1.3-.1 2.6-.2 4-.3l.7 20c-.9 0-1.7.1-2.5.2M512 222.3c-33.3 0-60.4-27.1-60.4-60.3 0-33.3 27.1-60.4 60.4-60.4s60.3 27.1 60.3 60.4c0 33.2-27 60.3-60.3 60.3m0-100.7c-22.2 0-40.4 18.1-40.4 40.4s18.1 40.3 40.4 40.3 40.3-18.1 40.3-40.3-18.1-40.4-40.3-40.4" style="stroke-width:.556909" transform="translate(87.623 87.622)scale(.12183)"/><path d="m444.4 293.1-60.7-82.4c-9.5-12.9-6.7-31 6.1-40.5 5-3.7 10.9-5.6 17.2-5.6 9.2 0 17.9 4.4 23.3 11.8l23.5 31.8c13.6 18.4 35.4 29.4 58.3 29.4 11.3 0 22.6-2.7 32.6-7.8 10.1-5.1 18.9-12.6 25.6-21.7l23.5-31.8c4.6-6.2 11.3-10.3 19-11.4 6.5-1 12.9.2 18.5 3.4h.4l2.7 2c12.8 9.5 15.6 27.7 6.1 40.5L579.6 293l-16.1-11.9 60.7-82.4c2.9-3.9 2.1-9.4-1.7-12.4l-.2-.2c-1.9-1.4-4.3-2-6.7-1.6s-4.4 1.6-5.9 3.5l-23.3 32c-8.5 11.6-19.8 21.1-32.7 27.6s-27.3 9.9-41.7 9.9c-29.2 0-57-14-74.4-37.6l-23.5-31.8c-1.7-2.3-4.3-3.6-7.2-3.6-1.9 0-3.8.6-5.3 1.7-1.9 1.4-3.2 3.5-3.5 5.9-.4 2.4.2 4.7 1.6 6.7l60.7 82.4z" style="stroke-width:.556909" transform="translate(87.623 87.622)scale(.12183)"/><path d="M445.7 295.1c-.4-.6-.9-1.3-1.4-2l16.1-11.8c.8 1.1 1.6 2.2 2.2 3.3zm132.5 0-16.9-10.7c.7-1.1 1.5-2.2 2.2-3.2l16.1 11.8c-.4.7-.9 1.4-1.4 2.1m236.9 102.2c-33.3 0-60.3-27.1-60.3-60.4s27.1-60.4 60.3-60.4 60.4 27.1 60.4 60.4-27.1 60.4-60.4 60.4m0-100.7c-22.2 0-40.3 18.1-40.3 40.4s18.1 40.4 40.3 40.4 40.4-18.1 40.4-40.4-18.1-40.4-40.4-40.4" style="stroke-width:.556909" transform="translate(87.623 87.622)scale(.12183)"/><path d="M840.4 472.7c-1.1 0-2.2-.1-3.2-.2l-101.7-11.4 2.2-19.9 101.7 11.4c5 .6 9.4-3 9.9-7.9.6-4.9-3-9.4-7.9-9.9l-39.3-4.4c-14.3-1.6-28.2-6.6-40.3-14.5-12-7.9-22.2-18.6-29.4-31.1-14.6-25.3-16.4-56.4-4.7-83.2l15.8-36.2c.5-1.2.8-2.4.8-3.6 0-3.6-2.1-6.8-5.4-8.2-2.2-1-4.6-1-6.9-.1-2.2.9-4 2.6-4.9 4.8l-41 93.8-18.3-8 41-93.8c3.1-7.1 8.8-12.5 16-15.4 7.2-2.8 15.1-2.7 22.2.4 10.5 4.6 17.4 15 17.4 26.5 0 4-.8 7.9-2.4 11.6l-16 36.2c-9.2 21-7.8 45.4 3.6 65.2 5.6 9.8 13.6 18.2 23.1 24.4 9.4 6.2 20.4 10.1 31.6 11.4l39.3 4.4c15.9 1.8 27.3 16.1 25.6 32-1.7 14.6-14 25.7-28.8 25.7" style="stroke-width:.556909" transform="translate(87.623 87.622)scale(.12183)"/><path d="m684.4 355.6-17.7-9.4c.4-.7.7-1.4 1.1-2.3l18.3 8.1c-.6 1.3-1.1 2.5-1.7 3.6m51.1 105.5c-.8-.1-1.7-.2-2.5-.2l.7-20c1.3 0 2.7.1 4 .3zm79.6 286.3c-33.3 0-60.3-27.1-60.3-60.4s27.1-60.3 60.3-60.3 60.4 27.1 60.4 60.3-27.1 60.4-60.4 60.4m0-100.7c-22.2 0-40.3 18.1-40.3 40.3s18.1 40.4 40.3 40.4 40.4-18.1 40.4-40.4-18.1-40.3-40.4-40.3" style="stroke-width:.556909" transform="translate(87.623 87.622)scale(.12183)"/><path d="M735.4 791.2c-11.2 0-21.8-6.5-26.6-17.4l-41-93.8 18.3-8 41 93.8c2 4.5 7.3 6.6 11.8 4.6l.3-.1c4.4-2.1 6.3-7.2 4.4-11.7l-15.8-36.2c-5.1-11.7-7.7-24.2-7.7-37 0-16.2 4.3-32.2 12.4-46.2 14.6-25.3 40.7-42.4 69.7-45.6l39.3-4.4c4.5-.5 8-4.3 8-8.9 0-.3 0-.7-.1-1-.3-2.4-1.4-4.5-3.3-6s-4.2-2.2-6.6-1.9l-101.7 11.4-2.2-19.9 101.7-11.4c7.7-.9 15.2 1.3 21.3 6.1 6 4.8 9.8 11.7 10.7 19.4.1 1.1.2 2.2.2 3.3 0 14.8-11.1 27.1-25.7 28.8l-39.3 4.4c-22.8 2.6-43.2 15.9-54.6 35.8-6.3 11-9.7 23.5-9.7 36.2 0 10 2 19.8 6.1 29l15.8 36.2c6.4 14.6-.3 31.7-14.9 38.1l-1.9.8h-.2c-3.4 1.1-6.6 1.6-9.7 1.6" style="stroke-width:.556909" transform="translate(87.623 87.622)scale(.12183)"/><path d="m733.8 583.1-.9-20c.9 0 1.7-.1 2.6-.2l2.2 19.9c-1.3.1-2.5.2-3.9.3m-66 97c-.3-.8-.7-1.6-1.1-2.3l17.7-9.3c.6 1.2 1.2 2.4 1.7 3.6zM512 687.8c-4.3 0-8.6-1.6-11.8-4.9L368.3 551c-39.5-39.5-39.5-103.7 0-143.2 19.1-19.1 44.6-29.7 71.6-29.7 27.1 0 52.5 10.5 71.6 29.7l.5.5.5-.5c19.1-19.1 44.6-29.7 71.6-29.7 27.1 0 52.5 10.5 71.6 29.7 19.1 19.1 29.7 44.6 29.7 71.6 0 27.1-10.5 52.5-29.7 71.6L523.8 682.9c-3.2 3.3-7.5 4.9-11.8 4.9m-72.1-289.7c-21.7 0-42.1 8.5-57.5 23.8-31.7 31.7-31.7 83.3 0 114.9L512 666.5l129.6-129.6c15.4-15.3 23.8-35.8 23.8-57.5s-8.5-42.1-23.8-57.5c-15.4-15.4-35.8-23.8-57.5-23.8s-42.1 8.5-57.5 23.8L512 436.6 497.3 422c-15.3-15.4-35.7-23.9-57.4-23.9" style="stroke-width:.556909" transform="translate(87.623 87.622)scale(.12183)"/></g></svg>